<?xml version="1.0" standalone="no"?>
<!DOCTYPE svg PUBLIC "-//W3C//DTD SVG 20010904//EN"
 "http://www.w3.org/TR/2001/REC-SVG-20010904/DTD/svg10.dtd">
<svg version="1.0" xmlns="http://www.w3.org/2000/svg"
 width="256.000000pt" height="256.000000pt" viewBox="0 0 256.000000 256.000000"
 preserveAspectRatio="xMidYMid meet">

<g transform="translate(0.000000,256.000000) scale(0.100000,-0.100000)"
fill="#000000" stroke="none">
<path d="M745 2386 c-148 -28 -268 -114 -327 -234 -31 -63 -33 -72 -33 -177 1
-80 5 -120 17 -145 l16 -35 1 45 c2 50 40 171 57 177 5 2 20 -21 33 -52 21
-50 102 -155 121 -155 4 0 12 26 17 58 6 31 17 77 26 102 9 25 21 64 27 88 14
55 62 109 110 123 57 17 105 4 150 -41 50 -50 67 -118 53 -214 -11 -79 -10
-82 113 -199 l72 -68 31 38 c98 118 126 290 71 437 -28 75 -122 172 -200 208
-107 49 -240 66 -355 44z"/>
<path d="M735 1907 c-12 -33 -16 -65 -13 -117 4 -71 4 -71 51 -111 45 -39 77
-84 77 -110 0 -6 -21 8 -47 32 -27 25 -91 70 -145 102 -53 32 -110 73 -127 92
-17 19 -33 35 -36 35 -10 0 -5 -58 10 -99 l14 -42 -77 7 -77 7 43 -46 c23 -26
42 -55 42 -66 0 -25 -39 -55 -141 -111 l-83 -45 50 -6 c63 -8 90 -25 110 -68
13 -27 15 -43 7 -77 -7 -31 -7 -42 1 -37 6 4 36 23 66 42 30 19 79 45 109 57
l55 22 -37 7 c-20 4 -37 11 -37 16 0 17 84 70 134 84 68 18 164 30 151 18 -5
-6 -39 -20 -75 -32 -84 -30 -90 -36 -43 -51 57 -19 57 -19 11 -52 -43 -30 -87
-76 -88 -90 0 -4 26 -5 58 -2 66 6 112 -12 146 -59 25 -34 26 -95 2 -131 -22
-34 -21 -36 14 -36 35 0 37 -8 10 -43 -28 -36 -26 -38 22 -21 43 15 108 59
108 73 0 4 -11 13 -25 19 -21 10 -25 19 -25 52 0 29 -4 40 -15 40 -25 0 -39
43 -26 81 17 51 14 56 -36 64 -77 11 -25 28 102 33 86 3 114 1 130 -11 17 -13
18 -18 7 -41 -18 -41 -16 -43 45 -51 65 -8 113 -46 113 -89 0 -35 14 -33 44 7
36 47 66 117 66 156 l0 34 -23 -21 c-27 -25 -57 -29 -57 -8 0 8 -8 21 -18 28
-12 8 -21 30 -24 60 -9 82 -43 132 -179 265 -120 118 -158 169 -185 248 -6 17
-8 15 -16 -15 -21 -76 -9 -102 101 -206 92 -88 162 -177 148 -190 -3 -3 -20
13 -37 35 -18 22 -84 86 -147 141 -123 110 -160 157 -178 227 l-12 47 -18 -47z
m351 -453 c19 -19 34 -44 34 -54 0 -42 -89 16 -105 68 -11 36 32 28 71 -14z"/>
<path d="M1890 1619 c-19 -12 -65 -44 -103 -71 -42 -32 -73 -48 -83 -44 -9 4
-14 12 -10 21 3 8 9 23 13 32 10 24 -67 -37 -111 -88 -31 -37 -96 -147 -96
-164 0 -4 23 14 51 39 101 91 262 157 378 155 46 0 45 0 -28 -19 -183 -48
-315 -143 -455 -329 -34 -45 -38 -54 -24 -62 9 -5 39 -27 67 -49 28 -22 54
-40 58 -40 5 0 28 39 52 88 51 102 116 203 163 251 74 76 196 102 300 64 46
-16 49 -16 95 6 71 32 150 51 222 51 l64 0 -39 31 c-56 45 -152 88 -223 100
-62 10 -161 0 -217 -22 -50 -18 -73 14 -37 53 22 24 6 23 -37 -3z"/>
<path d="M248 1272 c-60 -63 -97 -126 -122 -211 -15 -52 -15 -53 2 -37 25 22
52 21 52 -3 0 -11 -9 -57 -20 -103 -47 -198 -12 -398 94 -533 l31 -39 5 39 c3
21 10 40 16 42 7 2 40 -21 75 -52 122 -106 249 -155 399 -155 152 0 273 44
396 141 58 46 144 149 192 229 l21 35 -89 73 c-49 39 -93 72 -98 72 -5 0 -22
-18 -37 -41 -40 -57 -129 -135 -189 -167 -42 -22 -64 -27 -127 -27 -67 0 -81
3 -125 30 -54 34 -107 104 -126 168 -19 66 -15 173 10 252 20 63 44 108 99
184 l18 24 -37 -6 c-20 -3 -60 -22 -90 -41 -29 -20 -57 -36 -62 -36 -8 0 -2
64 11 119 l6 24 -44 -24 c-24 -13 -80 -59 -125 -101 -44 -43 -84 -75 -87 -71
-11 10 -7 102 7 183 8 41 11 78 7 83 -4 4 -33 -19 -63 -51z"/>
<path d="M990 1226 c0 -24 13 -42 65 -90 61 -57 66 -65 75 -119 5 -31 17 -71
27 -88 10 -17 74 -77 143 -132 69 -56 137 -115 152 -131 33 -36 48 -94 48
-192 0 -42 5 -94 11 -115 14 -46 61 -104 100 -124 l29 -16 -20 33 c-26 43 -26
113 0 156 11 17 23 32 27 32 5 0 16 -26 25 -58 41 -140 149 -217 303 -215 74
1 150 24 215 65 l35 22 -68 7 c-65 5 -119 30 -121 54 -1 6 26 13 59 17 274 34
390 256 221 424 -50 50 -138 94 -188 94 -19 0 -19 -1 6 -21 65 -51 73 -120 21
-178 -43 -47 -105 -71 -187 -71 l-58 0 25 38 c50 76 41 195 -19 251 l-23 22
-5 -46 c-7 -54 -28 -81 -78 -96 -53 -16 -83 0 -261 145 -167 135 -148 125
-296 152 -17 3 -26 17 -38 58 -9 30 -21 59 -28 64 -7 5 -37 13 -67 17 -62 8
-104 27 -119 52 -9 15 -10 13 -11 -11z"/>
</g>
</svg>
